<?xml version="1.0" encoding="utf-8" standalone="no"?>
<!DOCTYPE svg PUBLIC "-//W3C//DTD SVG 1.1//EN"
  "http://www.w3.org/Graphics/SVG/1.1/DTD/svg11.dtd">
<svg xmlns:xlink="http://www.w3.org/1999/xlink" width="1152pt" height="576pt" viewBox="0 0 1152 576" xmlns="http://www.w3.org/2000/svg" version="1.1">
 <metadata>
  <rdf:RDF xmlns:dc="http://purl.org/dc/elements/1.1/" xmlns:cc="http://creativecommons.org/ns#" xmlns:rdf="http://www.w3.org/1999/02/22-rdf-syntax-ns#">
   <cc:Work>
    <dc:type rdf:resource="http://purl.org/dc/dcmitype/StillImage"/>
    <dc:date>2023-04-17T14:47:29.084816</dc:date>
    <dc:format>image/svg+xml</dc:format>
    <dc:creator>
     <cc:Agent>
      <dc:title>Matplotlib v3.7.1, https://matplotlib.org/</dc:title>
     </cc:Agent>
    </dc:creator>
   </cc:Work>
  </rdf:RDF>
 </metadata>
 <defs>
  <style type="text/css">*{stroke-linejoin: round; stroke-linecap: butt}</style>
 </defs>
 <g id="figure_1">
  <g id="patch_1">
   <path d="M 0 576 
L 1152 576 
L 1152 0 
L 0 0 
z
" style="fill: #ffffff"/>
  </g>
  <g id="axes_1">
   <g id="patch_2">
    <path d="M 590.4 116.269027 
Q 590.4 168.700344 590.4 220.013628 
" clip-path="url(#pae04f67689)" style="fill: none; stroke: #000000; stroke-linecap: round"/>
    <path d="M 592.4 216.013628 
L 590.4 220.013628 
L 588.4 216.013628 
z
" clip-path="url(#pae04f67689)" style="stroke: #000000; stroke-linecap: round"/>
   </g>
   <g id="patch_3">
    <path d="M 593.830692 237.742393 
Q 616.752216 290.880894 639.230912 342.992796 
" clip-path="url(#pae04f67689)" style="fill: none; stroke: #000000; stroke-linecap: round"/>
    <path d="M 639.483038 338.527773 
L 639.230912 342.992796 
L 635.810169 340.112081 
z
" clip-path="url(#pae04f67689)" style="stroke: #000000; stroke-linecap: round"/>
   </g>
   <g id="patch_4">
    <path d="M 586.969308 237.742393 
Q 564.047784 290.880894 541.569088 342.992796 
" clip-path="url(#pae04f67689)" style="fill: none; stroke: #000000; stroke-linecap: round"/>
    <path d="M 544.989831 340.112081 
L 541.569088 342.992796 
L 541.316962 338.527773 
z
" clip-path="url(#pae04f67689)" style="stroke: #000000; stroke-linecap: round"/>
   </g>
   <g id="patch_5">
    <path d="M 651.183397 355.092757 
Q 801.214421 413.061733 950.20255 470.627756 
" clip-path="url(#pae04f67689)" style="fill: none; stroke: #000000; stroke-linecap: round"/>
    <path d="M 947.192203 467.32052 
L 950.20255 470.627756 
L 945.750552 471.051692 
z
" clip-path="url(#pae04f67689)" style="stroke: #000000; stroke-linecap: round"/>
   </g>
   <g id="patch_6">
    <path d="M 650.595532 356.312972 
Q 748.510696 413.061654 845.458546 469.249709 
" clip-path="url(#pae04f67689)" style="fill: none; stroke: #000000; stroke-linecap: round"/>
    <path d="M 843.000655 465.513565 
L 845.458546 469.249709 
L 840.994896 468.974336 
z
" clip-path="url(#pae04f67689)" style="stroke: #000000; stroke-linecap: round"/>
   </g>
   <g id="patch_7">
    <path d="M 648.761969 358.52968 
Q 695.806985 413.06143 742.121682 466.746638 
" clip-path="url(#pae04f67689)" style="fill: none; stroke: #000000; stroke-linecap: round"/>
    <path d="M 741.023153 462.411521 
L 742.121682 466.746638 
L 737.994471 465.024391 
z
" clip-path="url(#pae04f67689)" style="stroke: #000000; stroke-linecap: round"/>
   </g>
   <g id="patch_8">
    <path d="M 643.10366 360.632663 
Q 643.10366 413.063981 643.10366 464.377264 
" clip-path="url(#pae04f67689)" style="fill: none; stroke: #000000; stroke-linecap: round"/>
    <path d="M 645.10366 460.377264 
L 643.10366 464.377264 
L 641.10366 460.377264 
z
" clip-path="url(#pae04f67689)" style="stroke: #000000; stroke-linecap: round"/>
   </g>
   <g id="patch_9">
    <path d="M 537.69634 360.632663 
Q 537.69634 413.063981 537.69634 464.377264 
" clip-path="url(#pae04f67689)" style="fill: none; stroke: #000000; stroke-linecap: round"/>
    <path d="M 539.69634 460.377264 
L 537.69634 464.377264 
L 535.69634 460.377264 
z
" clip-path="url(#pae04f67689)" style="stroke: #000000; stroke-linecap: round"/>
   </g>
   <g id="patch_10">
    <path d="M 532.038031 358.52968 
Q 484.993015 413.06143 438.678318 466.746638 
" clip-path="url(#pae04f67689)" style="fill: none; stroke: #000000; stroke-linecap: round"/>
    <path d="M 442.805529 465.024391 
L 438.678318 466.746638 
L 439.776847 462.411521 
z
" clip-path="url(#pae04f67689)" style="stroke: #000000; stroke-linecap: round"/>
   </g>
   <g id="patch_11">
    <path d="M 530.204468 356.312972 
Q 432.289304 413.061654 335.341454 469.249709 
" clip-path="url(#pae04f67689)" style="fill: none; stroke: #000000; stroke-linecap: round"/>
    <path d="M 339.805104 468.974336 
L 335.341454 469.249709 
L 337.799345 465.513565 
z
" clip-path="url(#pae04f67689)" style="stroke: #000000; stroke-linecap: round"/>
   </g>
   <g id="patch_12">
    <path d="M 529.616603 355.092757 
Q 379.585579 413.061733 230.59745 470.627756 
" clip-path="url(#pae04f67689)" style="fill: none; stroke: #000000; stroke-linecap: round"/>
    <path d="M 235.049448 471.051692 
L 230.59745 470.627756 
L 233.607797 467.32052 
z
" clip-path="url(#pae04f67689)" style="stroke: #000000; stroke-linecap: round"/>
   </g>
   <g id="text_1">
    <g id="patch_13">
     <path d="M 572.907812 176.537244 
L 607.892187 176.537244 
Q 610.892187 176.537244 610.892187 173.537244 
L 610.892187 163.859119 
Q 610.892187 160.859119 607.892187 160.859119 
L 572.907812 160.859119 
Q 569.907812 160.859119 569.907812 163.859119 
L 569.907812 173.537244 
Q 569.907812 176.537244 572.907812 176.537244 
z
" clip-path="url(#pae04f67689)" style="fill: #ffffff; stroke: #ffffff; stroke-linejoin: miter"/>
    </g>
    <g clip-path="url(#pae04f67689)">
     <!-- 0,1,2,3 -->
     <g transform="translate(572.907812 171.457557) scale(0.1 -0.1)">
      <defs>
       <path id="DejaVuSans-30" d="M 2034 4250 
Q 1547 4250 1301 3770 
Q 1056 3291 1056 2328 
Q 1056 1369 1301 889 
Q 1547 409 2034 409 
Q 2525 409 2770 889 
Q 3016 1369 3016 2328 
Q 3016 3291 2770 3770 
Q 2525 4250 2034 4250 
z
M 2034 4750 
Q 2819 4750 3233 4129 
Q 3647 3509 3647 2328 
Q 3647 1150 3233 529 
Q 2819 -91 2034 -91 
Q 1250 -91 836 529 
Q 422 1150 422 2328 
Q 422 3509 836 4129 
Q 1250 4750 2034 4750 
z
" transform="scale(0.015625)"/>
       <path id="DejaVuSans-2c" d="M 750 794 
L 1409 794 
L 1409 256 
L 897 -744 
L 494 -744 
L 750 256 
L 750 794 
z
" transform="scale(0.015625)"/>
       <path id="DejaVuSans-31" d="M 794 531 
L 1825 531 
L 1825 4091 
L 703 3866 
L 703 4441 
L 1819 4666 
L 2450 4666 
L 2450 531 
L 3481 531 
L 3481 0 
L 794 0 
L 794 531 
z
" transform="scale(0.015625)"/>
       <path id="DejaVuSans-32" d="M 1228 531 
L 3431 531 
L 3431 0 
L 469 0 
L 469 531 
Q 828 903 1448 1529 
Q 2069 2156 2228 2338 
Q 2531 2678 2651 2914 
Q 2772 3150 2772 3378 
Q 2772 3750 2511 3984 
Q 2250 4219 1831 4219 
Q 1534 4219 1204 4116 
Q 875 4013 500 3803 
L 500 4441 
Q 881 4594 1212 4672 
Q 1544 4750 1819 4750 
Q 2544 4750 2975 4387 
Q 3406 4025 3406 3419 
Q 3406 3131 3298 2873 
Q 3191 2616 2906 2266 
Q 2828 2175 2409 1742 
Q 1991 1309 1228 531 
z
" transform="scale(0.015625)"/>
       <path id="DejaVuSans-33" d="M 2597 2516 
Q 3050 2419 3304 2112 
Q 3559 1806 3559 1356 
Q 3559 666 3084 287 
Q 2609 -91 1734 -91 
Q 1441 -91 1130 -33 
Q 819 25 488 141 
L 488 750 
Q 750 597 1062 519 
Q 1375 441 1716 441 
Q 2309 441 2620 675 
Q 2931 909 2931 1356 
Q 2931 1769 2642 2001 
Q 2353 2234 1838 2234 
L 1294 2234 
L 1294 2753 
L 1863 2753 
Q 2328 2753 2575 2939 
Q 2822 3125 2822 3475 
Q 2822 3834 2567 4026 
Q 2313 4219 1838 4219 
Q 1578 4219 1281 4162 
Q 984 4106 628 3988 
L 628 4550 
Q 988 4650 1302 4700 
Q 1616 4750 1894 4750 
Q 2613 4750 3031 4423 
Q 3450 4097 3450 3541 
Q 3450 3153 3228 2886 
Q 3006 2619 2597 2516 
z
" transform="scale(0.015625)"/>
      </defs>
      <use xlink:href="#DejaVuSans-30"/>
      <use xlink:href="#DejaVuSans-2c" x="63.623047"/>
      <use xlink:href="#DejaVuSans-31" x="95.410156"/>
      <use xlink:href="#DejaVuSans-2c" x="159.033203"/>
      <use xlink:href="#DejaVuSans-32" x="190.820312"/>
      <use xlink:href="#DejaVuSans-2c" x="254.443359"/>
      <use xlink:href="#DejaVuSans-33" x="286.230469"/>
     </g>
    </g>
   </g>
   <g id="text_2">
    <g id="patch_14">
     <path d="M 608.800267 298.719063 
L 624.703392 298.719063 
Q 627.703392 298.719063 627.703392 295.719063 
L 627.703392 286.040937 
Q 627.703392 283.040937 624.703392 283.040937 
L 608.800267 283.040937 
Q 605.800267 283.040937 605.800267 286.040937 
L 605.800267 295.719063 
Q 605.800267 298.719063 608.800267 298.719063 
z
" clip-path="url(#pae04f67689)" style="fill: #ffffff; stroke: #ffffff; stroke-linejoin: miter"/>
    </g>
    <g clip-path="url(#pae04f67689)">
     <!-- 0,1 -->
     <g transform="translate(608.800267 293.639375) scale(0.1 -0.1)">
      <use xlink:href="#DejaVuSans-30"/>
      <use xlink:href="#DejaVuSans-2c" x="63.623047"/>
      <use xlink:href="#DejaVuSans-31" x="95.410156"/>
     </g>
    </g>
   </g>
   <g id="text_3">
    <g id="patch_15">
     <path d="M 556.096608 298.719063 
L 571.999733 298.719063 
Q 574.999733 298.719063 574.999733 295.719063 
L 574.999733 286.040937 
Q 574.999733 283.040937 571.999733 283.040937 
L 556.096608 283.040937 
Q 553.096608 283.040937 553.096608 286.040937 
L 553.096608 295.719063 
Q 553.096608 298.719063 556.096608 298.719063 
z
" clip-path="url(#pae04f67689)" style="fill: #ffffff; stroke: #ffffff; stroke-linejoin: miter"/>
    </g>
    <g clip-path="url(#pae04f67689)">
     <!-- 2,3 -->
     <g transform="translate(556.096608 293.639375) scale(0.1 -0.1)">
      <use xlink:href="#DejaVuSans-32"/>
      <use xlink:href="#DejaVuSans-2c" x="63.623047"/>
      <use xlink:href="#DejaVuSans-33" x="95.410156"/>
     </g>
    </g>
   </g>
   <g id="text_4">
    <g id="patch_16">
     <path d="M 798.03339 420.900881 
L 804.39589 420.900881 
Q 807.39589 420.900881 807.39589 417.900881 
L 807.39589 408.222756 
Q 807.39589 405.222756 804.39589 405.222756 
L 798.03339 405.222756 
Q 795.03339 405.222756 795.03339 408.222756 
L 795.03339 417.900881 
Q 795.03339 420.900881 798.03339 420.900881 
z
" clip-path="url(#pae04f67689)" style="fill: #ffffff; stroke: #ffffff; stroke-linejoin: miter"/>
    </g>
    <g clip-path="url(#pae04f67689)">
     <!-- 0 -->
     <g transform="translate(798.03339 415.821193) scale(0.1 -0.1)">
      <use xlink:href="#DejaVuSans-30"/>
     </g>
    </g>
   </g>
   <g id="text_5">
    <g id="patch_17">
     <path d="M 745.32973 420.900881 
L 751.69223 420.900881 
Q 754.69223 420.900881 754.69223 417.900881 
L 754.69223 408.222756 
Q 754.69223 405.222756 751.69223 405.222756 
L 745.32973 405.222756 
Q 742.32973 405.222756 742.32973 408.222756 
L 742.32973 417.900881 
Q 742.32973 420.900881 745.32973 420.900881 
z
" clip-path="url(#pae04f67689)" style="fill: #ffffff; stroke: #ffffff; stroke-linejoin: miter"/>
    </g>
    <g clip-path="url(#pae04f67689)">
     <!-- 1 -->
     <g transform="translate(745.32973 415.821193) scale(0.1 -0.1)">
      <use xlink:href="#DejaVuSans-31"/>
     </g>
    </g>
   </g>
   <g id="text_6">
    <g id="patch_18">
     <path d="M 692.62607 420.900881 
L 698.98857 420.900881 
Q 701.98857 420.900881 701.98857 417.900881 
L 701.98857 408.222756 
Q 701.98857 405.222756 698.98857 405.222756 
L 692.62607 405.222756 
Q 689.62607 405.222756 689.62607 408.222756 
L 689.62607 417.900881 
Q 689.62607 420.900881 692.62607 420.900881 
z
" clip-path="url(#pae04f67689)" style="fill: #ffffff; stroke: #ffffff; stroke-linejoin: miter"/>
    </g>
    <g clip-path="url(#pae04f67689)">
     <!-- 2 -->
     <g transform="translate(692.62607 415.821193) scale(0.1 -0.1)">
      <use xlink:href="#DejaVuSans-32"/>
     </g>
    </g>
   </g>
   <g id="text_7">
    <g id="patch_19">
     <path d="M 639.92241 420.900881 
L 646.28491 420.900881 
Q 649.28491 420.900881 649.28491 417.900881 
L 649.28491 408.222756 
Q 649.28491 405.222756 646.28491 405.222756 
L 639.92241 405.222756 
Q 636.92241 405.222756 636.92241 408.222756 
L 636.92241 417.900881 
Q 636.92241 420.900881 639.92241 420.900881 
z
" clip-path="url(#pae04f67689)" style="fill: #ffffff; stroke: #ffffff; stroke-linejoin: miter"/>
    </g>
    <g clip-path="url(#pae04f67689)">
     <!-- 3 -->
     <g transform="translate(639.92241 415.821193) scale(0.1 -0.1)">
      <use xlink:href="#DejaVuSans-33"/>
     </g>
    </g>
   </g>
   <g id="text_8">
    <g id="patch_20">
     <path d="M 534.51509 420.900881 
L 540.87759 420.900881 
Q 543.87759 420.900881 543.87759 417.900881 
L 543.87759 408.222756 
Q 543.87759 405.222756 540.87759 405.222756 
L 534.51509 405.222756 
Q 531.51509 405.222756 531.51509 408.222756 
L 531.51509 417.900881 
Q 531.51509 420.900881 534.51509 420.900881 
z
" clip-path="url(#pae04f67689)" style="fill: #ffffff; stroke: #ffffff; stroke-linejoin: miter"/>
    </g>
    <g clip-path="url(#pae04f67689)">
     <!-- 0 -->
     <g transform="translate(534.51509 415.821193) scale(0.1 -0.1)">
      <use xlink:href="#DejaVuSans-30"/>
     </g>
    </g>
   </g>
   <g id="text_9">
    <g id="patch_21">
     <path d="M 481.81143 420.900881 
L 488.17393 420.900881 
Q 491.17393 420.900881 491.17393 417.900881 
L 491.17393 408.222756 
Q 491.17393 405.222756 488.17393 405.222756 
L 481.81143 405.222756 
Q 478.81143 405.222756 478.81143 408.222756 
L 478.81143 417.900881 
Q 478.81143 420.900881 481.81143 420.900881 
z
" clip-path="url(#pae04f67689)" style="fill: #ffffff; stroke: #ffffff; stroke-linejoin: miter"/>
    </g>
    <g clip-path="url(#pae04f67689)">
     <!-- 1 -->
     <g transform="translate(481.81143 415.821193) scale(0.1 -0.1)">
      <use xlink:href="#DejaVuSans-31"/>
     </g>
    </g>
   </g>
   <g id="text_10">
    <g id="patch_22">
     <path d="M 429.10777 420.900881 
L 435.47027 420.900881 
Q 438.47027 420.900881 438.47027 417.900881 
L 438.47027 408.222756 
Q 438.47027 405.222756 435.47027 405.222756 
L 429.10777 405.222756 
Q 426.10777 405.222756 426.10777 408.222756 
L 426.10777 417.900881 
Q 426.10777 420.900881 429.10777 420.900881 
z
" clip-path="url(#pae04f67689)" style="fill: #ffffff; stroke: #ffffff; stroke-linejoin: miter"/>
    </g>
    <g clip-path="url(#pae04f67689)">
     <!-- 2 -->
     <g transform="translate(429.10777 415.821193) scale(0.1 -0.1)">
      <use xlink:href="#DejaVuSans-32"/>
     </g>
    </g>
   </g>
   <g id="text_11">
    <g id="patch_23">
     <path d="M 376.40411 420.900881 
L 382.76661 420.900881 
Q 385.76661 420.900881 385.76661 417.900881 
L 385.76661 408.222756 
Q 385.76661 405.222756 382.76661 405.222756 
L 376.40411 405.222756 
Q 373.40411 405.222756 373.40411 408.222756 
L 373.40411 417.900881 
Q 373.40411 420.900881 376.40411 420.900881 
z
" clip-path="url(#pae04f67689)" style="fill: #ffffff; stroke: #ffffff; stroke-linejoin: miter"/>
    </g>
    <g clip-path="url(#pae04f67689)">
     <!-- 3 -->
     <g transform="translate(376.40411 415.821193) scale(0.1 -0.1)">
      <use xlink:href="#DejaVuSans-33"/>
     </g>
    </g>
   </g>
   <g id="PathCollection_1">
    <defs>
     <path id="m85f44e72d5" style="stroke: #1f78b4; stroke-width: 1.5"/>
    </defs>
    <g clip-path="url(#pae04f67689)">
     <use xlink:href="#m85f44e72d5" x="590.4" y="107.607273" style="fill: #1f78b4; stroke: #1f78b4; stroke-width: 1.5"/>
     <use xlink:href="#m85f44e72d5" x="590.4" y="229.789091" style="fill: #1f78b4; stroke: #1f78b4; stroke-width: 1.5"/>
     <use xlink:href="#m85f44e72d5" x="643.10366" y="351.970909" style="fill: #1f78b4; stroke: #1f78b4; stroke-width: 1.5"/>
     <use xlink:href="#m85f44e72d5" x="959.32562" y="474.152727" style="fill: #1f78b4; stroke: #1f78b4; stroke-width: 1.5"/>
     <use xlink:href="#m85f44e72d5" x="853.9183" y="474.152727" style="fill: #1f78b4; stroke: #1f78b4; stroke-width: 1.5"/>
     <use xlink:href="#m85f44e72d5" x="748.51098" y="474.152727" style="fill: #1f78b4; stroke: #1f78b4; stroke-width: 1.5"/>
     <use xlink:href="#m85f44e72d5" x="643.10366" y="474.152727" style="fill: #1f78b4; stroke: #1f78b4; stroke-width: 1.5"/>
     <use xlink:href="#m85f44e72d5" x="537.69634" y="351.970909" style="fill: #1f78b4; stroke: #1f78b4; stroke-width: 1.5"/>
     <use xlink:href="#m85f44e72d5" x="537.69634" y="474.152727" style="fill: #1f78b4; stroke: #1f78b4; stroke-width: 1.5"/>
     <use xlink:href="#m85f44e72d5" x="432.28902" y="474.152727" style="fill: #1f78b4; stroke: #1f78b4; stroke-width: 1.5"/>
     <use xlink:href="#m85f44e72d5" x="326.8817" y="474.152727" style="fill: #1f78b4; stroke: #1f78b4; stroke-width: 1.5"/>
     <use xlink:href="#m85f44e72d5" x="221.47438" y="474.152727" style="fill: #1f78b4; stroke: #1f78b4; stroke-width: 1.5"/>
    </g>
   </g>
   <g id="text_12">
    <g clip-path="url(#pae04f67689)">
     <!-- (0, 1, 1, 1, 1) -->
     <g transform="translate(551.375625 110.918523) scale(0.12 -0.12)">
      <defs>
       <path id="DejaVuSans-28" d="M 1984 4856 
Q 1566 4138 1362 3434 
Q 1159 2731 1159 2009 
Q 1159 1288 1364 580 
Q 1569 -128 1984 -844 
L 1484 -844 
Q 1016 -109 783 600 
Q 550 1309 550 2009 
Q 550 2706 781 3412 
Q 1013 4119 1484 4856 
L 1984 4856 
z
" transform="scale(0.015625)"/>
       <path id="DejaVuSans-20" transform="scale(0.015625)"/>
       <path id="DejaVuSans-29" d="M 513 4856 
L 1013 4856 
Q 1481 4119 1714 3412 
Q 1947 2706 1947 2009 
Q 1947 1309 1714 600 
Q 1481 -109 1013 -844 
L 513 -844 
Q 928 -128 1133 580 
Q 1338 1288 1338 2009 
Q 1338 2731 1133 3434 
Q 928 4138 513 4856 
z
" transform="scale(0.015625)"/>
      </defs>
      <use xlink:href="#DejaVuSans-28"/>
      <use xlink:href="#DejaVuSans-30" x="39.013672"/>
      <use xlink:href="#DejaVuSans-2c" x="102.636719"/>
      <use xlink:href="#DejaVuSans-20" x="134.423828"/>
      <use xlink:href="#DejaVuSans-31" x="166.210938"/>
      <use xlink:href="#DejaVuSans-2c" x="229.833984"/>
      <use xlink:href="#DejaVuSans-20" x="261.621094"/>
      <use xlink:href="#DejaVuSans-31" x="293.408203"/>
      <use xlink:href="#DejaVuSans-2c" x="357.03125"/>
      <use xlink:href="#DejaVuSans-20" x="388.818359"/>
      <use xlink:href="#DejaVuSans-31" x="420.605469"/>
      <use xlink:href="#DejaVuSans-2c" x="484.228516"/>
      <use xlink:href="#DejaVuSans-20" x="516.015625"/>
      <use xlink:href="#DejaVuSans-31" x="547.802734"/>
      <use xlink:href="#DejaVuSans-29" x="611.425781"/>
     </g>
    </g>
   </g>
   <g id="text_13">
    <g clip-path="url(#pae04f67689)">
     <!-- (1, 1, 1, 1, 2) -->
     <g transform="translate(551.375625 233.100341) scale(0.12 -0.12)">
      <use xlink:href="#DejaVuSans-28"/>
      <use xlink:href="#DejaVuSans-31" x="39.013672"/>
      <use xlink:href="#DejaVuSans-2c" x="102.636719"/>
      <use xlink:href="#DejaVuSans-20" x="134.423828"/>
      <use xlink:href="#DejaVuSans-31" x="166.210938"/>
      <use xlink:href="#DejaVuSans-2c" x="229.833984"/>
      <use xlink:href="#DejaVuSans-20" x="261.621094"/>
      <use xlink:href="#DejaVuSans-31" x="293.408203"/>
      <use xlink:href="#DejaVuSans-2c" x="357.03125"/>
      <use xlink:href="#DejaVuSans-20" x="388.818359"/>
      <use xlink:href="#DejaVuSans-31" x="420.605469"/>
      <use xlink:href="#DejaVuSans-2c" x="484.228516"/>
      <use xlink:href="#DejaVuSans-20" x="516.015625"/>
      <use xlink:href="#DejaVuSans-32" x="547.802734"/>
      <use xlink:href="#DejaVuSans-29" x="611.425781"/>
     </g>
    </g>
   </g>
   <g id="text_14">
    <g clip-path="url(#pae04f67689)">
     <!-- (0, 1, 2, 1, 2) -->
     <g transform="translate(604.079285 355.282159) scale(0.12 -0.12)">
      <use xlink:href="#DejaVuSans-28"/>
      <use xlink:href="#DejaVuSans-30" x="39.013672"/>
      <use xlink:href="#DejaVuSans-2c" x="102.636719"/>
      <use xlink:href="#DejaVuSans-20" x="134.423828"/>
      <use xlink:href="#DejaVuSans-31" x="166.210938"/>
      <use xlink:href="#DejaVuSans-2c" x="229.833984"/>
      <use xlink:href="#DejaVuSans-20" x="261.621094"/>
      <use xlink:href="#DejaVuSans-32" x="293.408203"/>
      <use xlink:href="#DejaVuSans-2c" x="357.03125"/>
      <use xlink:href="#DejaVuSans-20" x="388.818359"/>
      <use xlink:href="#DejaVuSans-31" x="420.605469"/>
      <use xlink:href="#DejaVuSans-2c" x="484.228516"/>
      <use xlink:href="#DejaVuSans-20" x="516.015625"/>
      <use xlink:href="#DejaVuSans-32" x="547.802734"/>
      <use xlink:href="#DejaVuSans-29" x="611.425781"/>
     </g>
    </g>
   </g>
   <g id="text_15">
    <g clip-path="url(#pae04f67689)">
     <!-- (1, 1, 2, 2, 2) -->
     <g transform="translate(920.301245 477.463977) scale(0.12 -0.12)">
      <use xlink:href="#DejaVuSans-28"/>
      <use xlink:href="#DejaVuSans-31" x="39.013672"/>
      <use xlink:href="#DejaVuSans-2c" x="102.636719"/>
      <use xlink:href="#DejaVuSans-20" x="134.423828"/>
      <use xlink:href="#DejaVuSans-31" x="166.210938"/>
      <use xlink:href="#DejaVuSans-2c" x="229.833984"/>
      <use xlink:href="#DejaVuSans-20" x="261.621094"/>
      <use xlink:href="#DejaVuSans-32" x="293.408203"/>
      <use xlink:href="#DejaVuSans-2c" x="357.03125"/>
      <use xlink:href="#DejaVuSans-20" x="388.818359"/>
      <use xlink:href="#DejaVuSans-32" x="420.605469"/>
      <use xlink:href="#DejaVuSans-2c" x="484.228516"/>
      <use xlink:href="#DejaVuSans-20" x="516.015625"/>
      <use xlink:href="#DejaVuSans-32" x="547.802734"/>
      <use xlink:href="#DejaVuSans-29" x="611.425781"/>
     </g>
    </g>
   </g>
   <g id="text_16">
    <g clip-path="url(#pae04f67689)">
     <!-- (1, 1, 2, 1, 3) -->
     <g transform="translate(814.893925 477.463977) scale(0.12 -0.12)">
      <use xlink:href="#DejaVuSans-28"/>
      <use xlink:href="#DejaVuSans-31" x="39.013672"/>
      <use xlink:href="#DejaVuSans-2c" x="102.636719"/>
      <use xlink:href="#DejaVuSans-20" x="134.423828"/>
      <use xlink:href="#DejaVuSans-31" x="166.210938"/>
      <use xlink:href="#DejaVuSans-2c" x="229.833984"/>
      <use xlink:href="#DejaVuSans-20" x="261.621094"/>
      <use xlink:href="#DejaVuSans-32" x="293.408203"/>
      <use xlink:href="#DejaVuSans-2c" x="357.03125"/>
      <use xlink:href="#DejaVuSans-20" x="388.818359"/>
      <use xlink:href="#DejaVuSans-31" x="420.605469"/>
      <use xlink:href="#DejaVuSans-2c" x="484.228516"/>
      <use xlink:href="#DejaVuSans-20" x="516.015625"/>
      <use xlink:href="#DejaVuSans-33" x="547.802734"/>
      <use xlink:href="#DejaVuSans-29" x="611.425781"/>
     </g>
    </g>
   </g>
   <g id="text_17">
    <g clip-path="url(#pae04f67689)">
     <!-- (1, 1, 2, 2, 3) -->
     <g transform="translate(709.486605 477.463977) scale(0.12 -0.12)">
      <use xlink:href="#DejaVuSans-28"/>
      <use xlink:href="#DejaVuSans-31" x="39.013672"/>
      <use xlink:href="#DejaVuSans-2c" x="102.636719"/>
      <use xlink:href="#DejaVuSans-20" x="134.423828"/>
      <use xlink:href="#DejaVuSans-31" x="166.210938"/>
      <use xlink:href="#DejaVuSans-2c" x="229.833984"/>
      <use xlink:href="#DejaVuSans-20" x="261.621094"/>
      <use xlink:href="#DejaVuSans-32" x="293.408203"/>
      <use xlink:href="#DejaVuSans-2c" x="357.03125"/>
      <use xlink:href="#DejaVuSans-20" x="388.818359"/>
      <use xlink:href="#DejaVuSans-32" x="420.605469"/>
      <use xlink:href="#DejaVuSans-2c" x="484.228516"/>
      <use xlink:href="#DejaVuSans-20" x="516.015625"/>
      <use xlink:href="#DejaVuSans-33" x="547.802734"/>
      <use xlink:href="#DejaVuSans-29" x="611.425781"/>
     </g>
    </g>
   </g>
   <g id="text_18">
    <g clip-path="url(#pae04f67689)">
     <!-- (1, 1, 2, 1, 4) -->
     <g transform="translate(604.079285 477.463977) scale(0.12 -0.12)">
      <defs>
       <path id="DejaVuSans-34" d="M 2419 4116 
L 825 1625 
L 2419 1625 
L 2419 4116 
z
M 2253 4666 
L 3047 4666 
L 3047 1625 
L 3713 1625 
L 3713 1100 
L 3047 1100 
L 3047 0 
L 2419 0 
L 2419 1100 
L 313 1100 
L 313 1709 
L 2253 4666 
z
" transform="scale(0.015625)"/>
      </defs>
      <use xlink:href="#DejaVuSans-28"/>
      <use xlink:href="#DejaVuSans-31" x="39.013672"/>
      <use xlink:href="#DejaVuSans-2c" x="102.636719"/>
      <use xlink:href="#DejaVuSans-20" x="134.423828"/>
      <use xlink:href="#DejaVuSans-31" x="166.210938"/>
      <use xlink:href="#DejaVuSans-2c" x="229.833984"/>
      <use xlink:href="#DejaVuSans-20" x="261.621094"/>
      <use xlink:href="#DejaVuSans-32" x="293.408203"/>
      <use xlink:href="#DejaVuSans-2c" x="357.03125"/>
      <use xlink:href="#DejaVuSans-20" x="388.818359"/>
      <use xlink:href="#DejaVuSans-31" x="420.605469"/>
      <use xlink:href="#DejaVuSans-2c" x="484.228516"/>
      <use xlink:href="#DejaVuSans-20" x="516.015625"/>
      <use xlink:href="#DejaVuSans-34" x="547.802734"/>
      <use xlink:href="#DejaVuSans-29" x="611.425781"/>
     </g>
    </g>
   </g>
   <g id="text_19">
    <g clip-path="url(#pae04f67689)">
     <!-- (0, 1, 3, 1, 2) -->
     <g transform="translate(498.671965 355.282159) scale(0.12 -0.12)">
      <use xlink:href="#DejaVuSans-28"/>
      <use xlink:href="#DejaVuSans-30" x="39.013672"/>
      <use xlink:href="#DejaVuSans-2c" x="102.636719"/>
      <use xlink:href="#DejaVuSans-20" x="134.423828"/>
      <use xlink:href="#DejaVuSans-31" x="166.210938"/>
      <use xlink:href="#DejaVuSans-2c" x="229.833984"/>
      <use xlink:href="#DejaVuSans-20" x="261.621094"/>
      <use xlink:href="#DejaVuSans-33" x="293.408203"/>
      <use xlink:href="#DejaVuSans-2c" x="357.03125"/>
      <use xlink:href="#DejaVuSans-20" x="388.818359"/>
      <use xlink:href="#DejaVuSans-31" x="420.605469"/>
      <use xlink:href="#DejaVuSans-2c" x="484.228516"/>
      <use xlink:href="#DejaVuSans-20" x="516.015625"/>
      <use xlink:href="#DejaVuSans-32" x="547.802734"/>
      <use xlink:href="#DejaVuSans-29" x="611.425781"/>
     </g>
    </g>
   </g>
   <g id="text_20">
    <g clip-path="url(#pae04f67689)">
     <!-- (1, 1, 3, 2, 2) -->
     <g transform="translate(498.671965 477.463977) scale(0.12 -0.12)">
      <use xlink:href="#DejaVuSans-28"/>
      <use xlink:href="#DejaVuSans-31" x="39.013672"/>
      <use xlink:href="#DejaVuSans-2c" x="102.636719"/>
      <use xlink:href="#DejaVuSans-20" x="134.423828"/>
      <use xlink:href="#DejaVuSans-31" x="166.210938"/>
      <use xlink:href="#DejaVuSans-2c" x="229.833984"/>
      <use xlink:href="#DejaVuSans-20" x="261.621094"/>
      <use xlink:href="#DejaVuSans-33" x="293.408203"/>
      <use xlink:href="#DejaVuSans-2c" x="357.03125"/>
      <use xlink:href="#DejaVuSans-20" x="388.818359"/>
      <use xlink:href="#DejaVuSans-32" x="420.605469"/>
      <use xlink:href="#DejaVuSans-2c" x="484.228516"/>
      <use xlink:href="#DejaVuSans-20" x="516.015625"/>
      <use xlink:href="#DejaVuSans-32" x="547.802734"/>
      <use xlink:href="#DejaVuSans-29" x="611.425781"/>
     </g>
    </g>
   </g>
   <g id="text_21">
    <g clip-path="url(#pae04f67689)">
     <!-- (1, 1, 3, 1, 3) -->
     <g transform="translate(393.264645 477.463977) scale(0.12 -0.12)">
      <use xlink:href="#DejaVuSans-28"/>
      <use xlink:href="#DejaVuSans-31" x="39.013672"/>
      <use xlink:href="#DejaVuSans-2c" x="102.636719"/>
      <use xlink:href="#DejaVuSans-20" x="134.423828"/>
      <use xlink:href="#DejaVuSans-31" x="166.210938"/>
      <use xlink:href="#DejaVuSans-2c" x="229.833984"/>
      <use xlink:href="#DejaVuSans-20" x="261.621094"/>
      <use xlink:href="#DejaVuSans-33" x="293.408203"/>
      <use xlink:href="#DejaVuSans-2c" x="357.03125"/>
      <use xlink:href="#DejaVuSans-20" x="388.818359"/>
      <use xlink:href="#DejaVuSans-31" x="420.605469"/>
      <use xlink:href="#DejaVuSans-2c" x="484.228516"/>
      <use xlink:href="#DejaVuSans-20" x="516.015625"/>
      <use xlink:href="#DejaVuSans-33" x="547.802734"/>
      <use xlink:href="#DejaVuSans-29" x="611.425781"/>
     </g>
    </g>
   </g>
   <g id="text_22">
    <g clip-path="url(#pae04f67689)">
     <!-- (1, 1, 3, 2, 4) -->
     <g transform="translate(287.857325 477.463977) scale(0.12 -0.12)">
      <use xlink:href="#DejaVuSans-28"/>
      <use xlink:href="#DejaVuSans-31" x="39.013672"/>
      <use xlink:href="#DejaVuSans-2c" x="102.636719"/>
      <use xlink:href="#DejaVuSans-20" x="134.423828"/>
      <use xlink:href="#DejaVuSans-31" x="166.210938"/>
      <use xlink:href="#DejaVuSans-2c" x="229.833984"/>
      <use xlink:href="#DejaVuSans-20" x="261.621094"/>
      <use xlink:href="#DejaVuSans-33" x="293.408203"/>
      <use xlink:href="#DejaVuSans-2c" x="357.03125"/>
      <use xlink:href="#DejaVuSans-20" x="388.818359"/>
      <use xlink:href="#DejaVuSans-32" x="420.605469"/>
      <use xlink:href="#DejaVuSans-2c" x="484.228516"/>
      <use xlink:href="#DejaVuSans-20" x="516.015625"/>
      <use xlink:href="#DejaVuSans-34" x="547.802734"/>
      <use xlink:href="#DejaVuSans-29" x="611.425781"/>
     </g>
    </g>
   </g>
   <g id="text_23">
    <g clip-path="url(#pae04f67689)">
     <!-- (1, 1, 3, 0, 1) -->
     <g transform="translate(182.450005 477.463977) scale(0.12 -0.12)">
      <use xlink:href="#DejaVuSans-28"/>
      <use xlink:href="#DejaVuSans-31" x="39.013672"/>
      <use xlink:href="#DejaVuSans-2c" x="102.636719"/>
      <use xlink:href="#DejaVuSans-20" x="134.423828"/>
      <use xlink:href="#DejaVuSans-31" x="166.210938"/>
      <use xlink:href="#DejaVuSans-2c" x="229.833984"/>
      <use xlink:href="#DejaVuSans-20" x="261.621094"/>
      <use xlink:href="#DejaVuSans-33" x="293.408203"/>
      <use xlink:href="#DejaVuSans-2c" x="357.03125"/>
      <use xlink:href="#DejaVuSans-20" x="388.818359"/>
      <use xlink:href="#DejaVuSans-30" x="420.605469"/>
      <use xlink:href="#DejaVuSans-2c" x="484.228516"/>
      <use xlink:href="#DejaVuSans-20" x="516.015625"/>
      <use xlink:href="#DejaVuSans-31" x="547.802734"/>
      <use xlink:href="#DejaVuSans-29" x="611.425781"/>
     </g>
    </g>
   </g>
  </g>
 </g>
 <defs>
  <clipPath id="pae04f67689">
   <rect x="144" y="69.12" width="892.8" height="443.52"/>
  </clipPath>
 </defs>
</svg>
